<svg id="Слой_1" data-name="Слой 1" xmlns="http://www.w3.org/2000/svg" viewBox="0 0 417.34 368.24"><defs><style>.cls-1{fill:#fff;}.cls-2{fill:none;stroke:#201600;stroke-miterlimit:10;}</style></defs><title>logo_mobile</title><polygon class="cls-1" points="195.55 183.62 129.05 247.33 70.21 184.16 129.07 121.06 195.55 183.62"/><polygon class="cls-2" points="129.05 247.33 195.55 183.62 129.07 121.06 70.21 184.16 129.05 247.33"/><polygon class="cls-1" points="288.5 270.74 208.26 367.46 128.55 270.29 208.46 195.37 288.5 270.74"/><polygon class="cls-2" points="128.55 270.29 208.26 367.46 288.5 270.74 208.46 195.37 128.55 270.29"/><polygon class="cls-1" points="287.97 121.49 346.83 184.59 287.99 247.76 221.49 184.05 287.97 121.49"/><polygon class="cls-2" points="287.99 247.76 221.49 184.05 287.97 121.49 346.83 184.59 287.99 247.76"/><polygon class="cls-1" points="208.61 0.79 288.86 97.5 208.82 172.88 128.9 97.96 208.61 0.79"/><polygon class="cls-2" points="128.9 97.96 208.61 0.79 288.86 97.5 208.82 172.88 128.9 97.96"/><polygon class="cls-1" points="118.13 109.62 52.57 181 0.88 80.12 100.76 92.7 118.13 109.62"/><polygon class="cls-2" points="52.57 181 118.13 109.62 100.76 92.7 0.88 80.12 52.57 181"/><polygon class="cls-1" points="364.57 186.96 416.25 287.84 316.38 275.25 299 258.34 364.57 186.96"/><polygon class="cls-1" points="416.47 80.12 364.78 180.99 299.22 109.62 316.59 92.7 416.47 80.12"/><polygon class="cls-2" points="364.78 180.99 299.22 109.62 316.59 92.7 416.47 80.12 364.78 180.99"/><polygon class="cls-2" points="364.57 186.96 299 258.34 316.38 275.25 416.25 287.84 364.57 186.96"/><polygon class="cls-1" points="52.72 186.96 118.28 258.34 100.91 275.25 1.03 287.84 52.72 186.96"/><polygon class="cls-2" points="52.72 186.96 118.28 258.34 100.91 275.25 1.03 287.84 52.72 186.96"/></svg>