<?xml version="1.0" encoding="utf-8"?>
<!-- Generator: Adobe Illustrator 23.0.3, SVG Export Plug-In . SVG Version: 6.00 Build 0)  -->
<svg version="1.1" id="Слой_1" xmlns="http://www.w3.org/2000/svg" xmlns:xlink="http://www.w3.org/1999/xlink" x="0px" y="0px"
	 viewBox="0 0 1593.6 340.6" style="enable-background:new 0 0 1593.6 340.6;" xml:space="preserve">
<style type="text/css">
	.st0{fill:#FFFFFF;}
	.st1{fill:none;stroke:#201600;stroke-miterlimit:10;}
	.st2{fill:#FFFFFF;stroke:#201600;stroke-miterlimit:10;}
</style>
<title>logo_big</title>
<polygon class="st0" points="180.9,169.8 119.4,228.7 65,170.3 119.4,112 "/>
<polygon class="st1" points="119.4,228.7 180.9,169.8 119.4,112 65,170.3 "/>
<polygon class="st0" points="266.8,250.4 192.6,339.8 118.9,249.9 192.8,180.7 "/>
<polygon class="st1" points="118.9,249.9 192.6,339.8 266.8,250.4 192.8,180.7 "/>
<polygon class="st0" points="266.3,112.4 320.7,170.7 266.3,229.1 204.8,170.2 "/>
<polygon class="st1" points="266.3,229.1 204.8,170.2 266.3,112.4 320.7,170.7 "/>
<polygon class="st0" points="192.9,0.8 267.1,90.2 193.1,159.9 119.2,90.6 "/>
<polygon class="st1" points="119.2,90.6 192.9,0.8 267.1,90.2 193.1,159.9 "/>
<polygon class="st0" points="109.3,101.4 48.7,167.4 0.9,74.1 93.2,85.8 "/>
<polygon class="st1" points="48.7,167.4 109.3,101.4 93.2,85.8 0.9,74.1 "/>
<polygon class="st0" points="385.1,74.1 337.3,167.4 276.7,101.4 292.8,85.8 "/>
<polygon class="st0" points="337.1,172.9 384.9,266.2 292.6,254.5 276.5,238.9 "/>
<polygon class="st1" points="337.3,167.4 276.7,101.4 292.8,85.8 385.1,74.1 "/>
<polygon class="st1" points="337.1,172.9 276.5,238.9 292.6,254.5 384.9,266.2 "/>
<polygon class="st0" points="48.8,172.9 109.4,238.9 93.4,254.5 1,266.2 "/>
<polygon class="st1" points="48.8,172.9 109.4,238.9 93.4,254.5 1,266.2 "/>
<path class="st2" d="M493.9,146h-79.3v-22.5h90.5l22.6,22.5v45.2l-22.6,22.4h-90.5v-56.3h22.5v33.9h56.8l11.2-11.5v-22.4L493.9,146z
	"/>
<path class="st2" d="M561.8,123.4H641l11.4,11.2V146h-90.6v11.3h68v22.4h-68v11.5h90.6v11.1L641,213.6h-79.3l-22.5-22.4V146
	L561.8,123.4z"/>
<path class="st2" d="M663.9,134.6l11.2-11.2h79.3L777,146v56.3l-11.4,11.3h-11.3v-56.3l-11.2-11.5h-56.8v67.8h-11.3l-11.2-11.3
	V134.6z"/>
<path class="st2" d="M788.6,134.6l11.2-11.2h11.4v33.7h34.1l33.9-33.7h22.6V146h-11.4l-22.8,22.8l22.6,22.4h11.4v22.5h-22.5L845,180
	h-33.9v22.3l-11.4,11.3h-11.2V134.6z"/>
<path class="st2" d="M913.3,134.6l11.2-11.2h11.4v78.8l-11.4,11.3h-11.2V134.6z"/>
<path class="st2" d="M947.5,134.6l11.2-11.2h79.2l22.6,22.5v56.3l-11.4,11.3h-11.2v-56.3l-11.3-11.5h-56.8v67.8h-11.2l-11.2-11.3
	L947.5,134.6z"/>
<path class="st2" d="M1072.1,146l22.5-22.5h79.3l11.4,11.2V146h-79.1l-11.5,11.3v22.4l11.5,11.5h56.5v-11.5h-45.2v-22.4h56.5
	l11.4,11.2v33.7l-11.4,11.3h-79.3l-22.5-22.4L1072.1,146z"/>
</svg>
